<?xml version="1.0" encoding="UTF-8" standalone="no"?>
<!DOCTYPE svg PUBLIC "-//W3C//DTD SVG 1.1//EN"
 "http://www.w3.org/Graphics/SVG/1.1/DTD/svg11.dtd">
<!-- Generated by graphviz version 2.43.0 (0)
 -->
<!-- Title: %3 Pages: 1 -->
<svg width="816pt" height="1774pt"
 viewBox="0.00 0.00 816.00 1774.00" xmlns="http://www.w3.org/2000/svg" xmlns:xlink="http://www.w3.org/1999/xlink">
<g id="graph0" class="graph" transform="scale(1 1) rotate(0) translate(4 1770)">
<title>%3</title>
<polygon fill="white" stroke="transparent" points="-4,4 -4,-1770 812,-1770 812,4 -4,4"/>
<g id="clust1" class="cluster">
<title>cluster_1</title>
<polygon fill="lightgrey" stroke="lightgrey" points="273,-1419 273,-1722 587,-1722 587,-1419 273,-1419"/>
<text text-anchor="middle" x="430" y="-1706.8" font-family="Times,serif" font-size="14.00">block&#45;1</text>
</g>
<g id="clust2" class="cluster">
<title>cluster_2</title>
<polygon fill="lightgrey" stroke="lightgrey" points="292,-1119 292,-1411 568,-1411 568,-1119 292,-1119"/>
<text text-anchor="middle" x="430" y="-1395.8" font-family="Times,serif" font-size="14.00">block&#45;2</text>
</g>
<g id="clust3" class="cluster">
<title>cluster_3</title>
<polygon fill="lightgrey" stroke="lightgrey" points="263,-997 263,-1111 375,-1111 375,-997 263,-997"/>
<text text-anchor="middle" x="319" y="-1095.8" font-family="Times,serif" font-size="14.00">block&#45;3</text>
</g>
<g id="clust4" class="cluster">
<title>cluster_4</title>
<polygon fill="lightgrey" stroke="lightgrey" points="153,-397 153,-578 429,-578 429,-397 153,-397"/>
<text text-anchor="middle" x="291" y="-562.8" font-family="Times,serif" font-size="14.00">block&#45;4</text>
</g>
<g id="clust5" class="cluster">
<title>cluster_5</title>
<polygon fill="lightgrey" stroke="lightgrey" points="468,-8 468,-983.5 800,-983.5 800,-8 468,-8"/>
<text text-anchor="middle" x="634" y="-968.3" font-family="Times,serif" font-size="14.00">block&#45;5</text>
</g>
<g id="clust6" class="cluster">
<title>cluster_6</title>
<polygon fill="lightgrey" stroke="lightgrey" points="122,-786 122,-989 460,-989 460,-786 122,-786"/>
<text text-anchor="middle" x="291" y="-973.8" font-family="Times,serif" font-size="14.00">block&#45;6</text>
</g>
<g id="clust7" class="cluster">
<title>cluster_7</title>
<polygon fill="lightgrey" stroke="lightgrey" points="153,-586 153,-778 429,-778 429,-586 153,-586"/>
<text text-anchor="middle" x="291" y="-762.8" font-family="Times,serif" font-size="14.00">block&#45;7</text>
</g>
<g id="clust8" class="cluster">
<title>cluster_8</title>
<polygon fill="lightgrey" stroke="lightgrey" points="8,-1119 8,-1411 284,-1411 284,-1119 8,-1119"/>
<text text-anchor="middle" x="146" y="-1395.8" font-family="Times,serif" font-size="14.00">block&#45;8</text>
</g>
<!-- inst_26474 -->
<g id="node1" class="node">
<title>inst_26474</title>
<polygon fill="#acddde" stroke="black" points="481.5,-1691 378.5,-1691 378.5,-1638 481.5,-1638 481.5,-1691"/>
<text text-anchor="middle" x="430" y="-1679" font-family="Times,serif" font-size="10.00">:RawCode </text>
<text text-anchor="middle" x="430" y="-1668" font-family="Times,serif" font-size="10.00"> id:inst_26474</text>
<text text-anchor="middle" x="430" y="-1657" font-family="Times,serif" font-size="10.00">form:(G__26471) </text>
</g>
<!-- inst_26475 -->
<g id="node2" class="node">
<title>inst_26475</title>
<polygon fill="#bbbbbb" stroke="black" points="482,-1602 378,-1602 378,-1549 482,-1549 482,-1602"/>
<text text-anchor="middle" x="430" y="-1590" font-family="Times,serif" font-size="10.00">:Const </text>
<text text-anchor="middle" x="430" y="-1579" font-family="Times,serif" font-size="10.00"> value:inst_26474</text>
<text text-anchor="middle" x="430" y="-1568" font-family="Times,serif" font-size="10.00">id:inst_26475 </text>
</g>
<!-- inst_26474&#45;&gt;inst_26475 -->
<g id="edge1" class="edge">
<title>inst_26474&#45;&gt;inst_26475</title>
<path fill="none" stroke="black" d="M430,-1637.87C430,-1629.89 430,-1620.93 430,-1612.38"/>
<polygon fill="black" stroke="black" points="433.5,-1612.25 430,-1602.25 426.5,-1612.25 433.5,-1612.25"/>
</g>
<!-- inst_26476 -->
<g id="node3" class="node">
<title>inst_26476</title>
<polygon fill="#ffe7c7" stroke="black" points="578.5,-1513 281.5,-1513 281.5,-1427 578.5,-1427 578.5,-1513"/>
<text text-anchor="middle" x="430" y="-1501" font-family="Times,serif" font-size="10.00">:CustomTerminator </text>
<text text-anchor="middle" x="430" y="-1490" font-family="Times,serif" font-size="10.00"> f:clojure.core.async.impl.ioc&#45;macros/take!</text>
<text text-anchor="middle" x="430" y="-1479" font-family="Times,serif" font-size="10.00">blk:2</text>
<text text-anchor="middle" x="430" y="-1468" font-family="Times,serif" font-size="10.00">values:[inst_26475]</text>
<text text-anchor="middle" x="430" y="-1457" font-family="Times,serif" font-size="10.00">meta:{:clojure.storm/coord [3 1 1], :column 21, :line 16}</text>
<text text-anchor="middle" x="430" y="-1446" font-family="Times,serif" font-size="10.00">id:inst_26476 </text>
</g>
<!-- inst_26475&#45;&gt;inst_26476 -->
<g id="edge2" class="edge">
<title>inst_26475&#45;&gt;inst_26476</title>
<path fill="none" stroke="black" d="M430,-1548.92C430,-1541.09 430,-1532.17 430,-1523.24"/>
<polygon fill="black" stroke="black" points="433.5,-1523.2 430,-1513.2 426.5,-1523.2 433.5,-1523.2"/>
</g>
<!-- inst_26477 -->
<g id="node4" class="node">
<title>inst_26477</title>
<polygon fill="#bbbbbb" stroke="black" points="559.5,-1380 300.5,-1380 300.5,-1327 559.5,-1327 559.5,-1380"/>
<text text-anchor="middle" x="430" y="-1368" font-family="Times,serif" font-size="10.00">:Const </text>
<text text-anchor="middle" x="430" y="-1357" font-family="Times,serif" font-size="10.00"> value::clojure.core.async.impl.ioc&#45;macros/value</text>
<text text-anchor="middle" x="430" y="-1346" font-family="Times,serif" font-size="10.00">id:inst_26477 </text>
</g>
<!-- inst_26476&#45;&gt;inst_26477 -->
<g id="edge19" class="edge">
<title>inst_26476&#45;&gt;inst_26477</title>
<path fill="none" stroke="black" d="M430,-1426.69C430,-1414.69 430,-1401.75 430,-1390.19"/>
<polygon fill="black" stroke="black" points="433.5,-1390.02 430,-1380.02 426.5,-1390.02 433.5,-1390.02"/>
</g>
<!-- inst_26478 -->
<g id="node5" class="node">
<title>inst_26478</title>
<polygon fill="#bbbbbb" stroke="black" points="404,-1285.5 300,-1285.5 300,-1232.5 404,-1232.5 404,-1285.5"/>
<text text-anchor="middle" x="352" y="-1273.5" font-family="Times,serif" font-size="10.00">:Const </text>
<text text-anchor="middle" x="352" y="-1262.5" font-family="Times,serif" font-size="10.00"> value:inst_26477</text>
<text text-anchor="middle" x="352" y="-1251.5" font-family="Times,serif" font-size="10.00">id:inst_26478 </text>
</g>
<!-- inst_26477&#45;&gt;inst_26478 -->
<g id="edge3" class="edge">
<title>inst_26477&#45;&gt;inst_26478</title>
<path fill="none" stroke="black" d="M408.27,-1326.73C399.57,-1316.41 389.42,-1304.38 380.16,-1293.4"/>
<polygon fill="black" stroke="black" points="382.73,-1291.02 373.61,-1285.63 377.38,-1295.53 382.73,-1291.02"/>
</g>
<!-- inst_26479 -->
<g id="node6" class="node">
<title>inst_26479</title>
<polygon fill="#bbbbbb" stroke="black" points="390,-1191 304,-1191 304,-1127 390,-1127 390,-1191"/>
<text text-anchor="middle" x="347" y="-1179" font-family="Times,serif" font-size="10.00">:Jmp </text>
<text text-anchor="middle" x="347" y="-1168" font-family="Times,serif" font-size="10.00"> value:</text>
<text text-anchor="middle" x="347" y="-1157" font-family="Times,serif" font-size="10.00">block:3</text>
<text text-anchor="middle" x="347" y="-1146" font-family="Times,serif" font-size="10.00">id:inst_26479 </text>
</g>
<!-- inst_26478&#45;&gt;inst_26479 -->
<g id="edge4" class="edge">
<title>inst_26478&#45;&gt;inst_26479</title>
<path fill="none" stroke="black" d="M350.69,-1232.25C350.2,-1222.81 349.65,-1211.87 349.11,-1201.4"/>
<polygon fill="black" stroke="black" points="352.6,-1200.97 348.59,-1191.16 345.6,-1201.33 352.6,-1200.97"/>
</g>
<!-- inst_26480 -->
<g id="node7" class="node">
<title>inst_26480</title>
<polygon fill="#fef8dd" stroke="black" points="366.5,-1080 271.5,-1080 271.5,-1005 366.5,-1005 366.5,-1080"/>
<text text-anchor="middle" x="319" y="-1068" font-family="Times,serif" font-size="10.00">:CondBr </text>
<text text-anchor="middle" x="319" y="-1057" font-family="Times,serif" font-size="10.00"> test:inst_26478</text>
<text text-anchor="middle" x="319" y="-1046" font-family="Times,serif" font-size="10.00">then&#45;block:5</text>
<text text-anchor="middle" x="319" y="-1035" font-family="Times,serif" font-size="10.00">else&#45;block:6</text>
<text text-anchor="middle" x="319" y="-1024" font-family="Times,serif" font-size="10.00">id:inst_26480 </text>
</g>
<!-- inst_26479&#45;&gt;inst_26480 -->
<g id="edge20" class="edge">
<title>inst_26479&#45;&gt;inst_26480</title>
<path fill="none" stroke="black" d="M339.35,-1126.71C336.56,-1115.32 333.35,-1102.19 330.32,-1089.78"/>
<polygon fill="black" stroke="black" points="333.71,-1088.91 327.93,-1080.02 326.91,-1090.57 333.71,-1088.91"/>
</g>
<!-- inst_26481 -->
<g id="node10" class="node">
<title>inst_26481</title>
<polygon fill="#d6cdea" stroke="black" points="712,-952.5 488,-952.5 488,-899.5 712,-899.5 712,-952.5"/>
<text text-anchor="middle" x="600" y="-940.5" font-family="Times,serif" font-size="10.00">:Call </text>
<text text-anchor="middle" x="600" y="-929.5" font-family="Times,serif" font-size="10.00"> refs:[clojure.core/str inst_26478 &quot; thing&quot;]</text>
<text text-anchor="middle" x="600" y="-918.5" font-family="Times,serif" font-size="10.00">id:inst_26481 </text>
</g>
<!-- inst_26480&#45;&gt;inst_26481 -->
<g id="edge21" class="edge">
<title>inst_26480&#45;&gt;inst_26481</title>
<path fill="none" stroke="black" d="M366.71,-1025.31C395.17,-1015.38 431.9,-1002.1 464,-989 488.18,-979.13 514.36,-967.44 537.24,-956.88"/>
<polygon fill="black" stroke="black" points="538.89,-959.98 546.49,-952.59 535.95,-953.63 538.89,-959.98"/>
</g>
<!-- inst_26494 -->
<g id="node20" class="node">
<title>inst_26494</title>
<polygon fill="#acddde" stroke="black" points="452,-958 130,-958 130,-894 452,-894 452,-958"/>
<text text-anchor="middle" x="291" y="-946" font-family="Times,serif" font-size="10.00">:RawCode </text>
<text text-anchor="middle" x="291" y="-935" font-family="Times,serif" font-size="10.00"> id:inst_26494</text>
<text text-anchor="middle" x="291" y="-924" font-family="Times,serif" font-size="10.00">form:(println &quot;Done&quot;)</text>
<text text-anchor="middle" x="291" y="-913" font-family="Times,serif" font-size="10.00">form&#45;meta:{:clojure.storm/coord [3 2 3], :column 7, :line 24} </text>
</g>
<!-- inst_26480&#45;&gt;inst_26494 -->
<g id="edge22" class="edge">
<title>inst_26480&#45;&gt;inst_26494</title>
<path fill="none" stroke="black" d="M310.06,-1004.96C307.19,-993.2 303.98,-980.09 301.03,-968.03"/>
<polygon fill="black" stroke="black" points="304.4,-967.08 298.63,-958.2 297.6,-968.74 304.4,-967.08"/>
</g>
<!-- inst_26498 -->
<g id="node8" class="node">
<title>inst_26498</title>
<polygon fill="#bbbbbb" stroke="black" points="420.5,-547 161.5,-547 161.5,-494 420.5,-494 420.5,-547"/>
<text text-anchor="middle" x="291" y="-535" font-family="Times,serif" font-size="10.00">:Const </text>
<text text-anchor="middle" x="291" y="-524" font-family="Times,serif" font-size="10.00"> value::clojure.core.async.impl.ioc&#45;macros/value</text>
<text text-anchor="middle" x="291" y="-513" font-family="Times,serif" font-size="10.00">id:inst_26498 </text>
</g>
<!-- inst_26499 -->
<g id="node9" class="node">
<title>inst_26499</title>
<polygon fill="#d6cdea" stroke="black" points="343,-458 239,-458 239,-405 343,-405 343,-458"/>
<text text-anchor="middle" x="291" y="-446" font-family="Times,serif" font-size="10.00">:Return </text>
<text text-anchor="middle" x="291" y="-435" font-family="Times,serif" font-size="10.00"> value:inst_26498</text>
<text text-anchor="middle" x="291" y="-424" font-family="Times,serif" font-size="10.00">id:inst_26499 </text>
</g>
<!-- inst_26498&#45;&gt;inst_26499 -->
<g id="edge5" class="edge">
<title>inst_26498&#45;&gt;inst_26499</title>
<path fill="none" stroke="black" d="M291,-493.87C291,-485.89 291,-476.93 291,-468.38"/>
<polygon fill="black" stroke="black" points="294.5,-468.25 291,-458.25 287.5,-468.25 294.5,-468.25"/>
</g>
<!-- inst_26482 -->
<g id="node11" class="node">
<title>inst_26482</title>
<polygon fill="#d6cdea" stroke="black" points="684.5,-852.5 527.5,-852.5 527.5,-799.5 684.5,-799.5 684.5,-852.5"/>
<text text-anchor="middle" x="606" y="-840.5" font-family="Times,serif" font-size="10.00">:Call </text>
<text text-anchor="middle" x="606" y="-829.5" font-family="Times,serif" font-size="10.00"> refs:[clojure.core/range 10]</text>
<text text-anchor="middle" x="606" y="-818.5" font-family="Times,serif" font-size="10.00">id:inst_26482 </text>
</g>
<!-- inst_26481&#45;&gt;inst_26482 -->
<g id="edge6" class="edge">
<title>inst_26481&#45;&gt;inst_26482</title>
<path fill="none" stroke="black" d="M601.58,-899.25C602.26,-888.11 603.07,-874.88 603.81,-862.81"/>
<polygon fill="black" stroke="black" points="607.32,-862.77 604.43,-852.58 600.33,-862.34 607.32,-862.77"/>
</g>
<!-- inst_26483 -->
<g id="node12" class="node">
<title>inst_26483</title>
<polygon fill="#d6cdea" stroke="black" points="749,-747 477,-747 477,-694 749,-694 749,-747"/>
<text text-anchor="middle" x="613" y="-735" font-family="Times,serif" font-size="10.00">:Call </text>
<text text-anchor="middle" x="613" y="-724" font-family="Times,serif" font-size="10.00"> refs:[clojure.core/map clojure.core/inc inst_26482]</text>
<text text-anchor="middle" x="613" y="-713" font-family="Times,serif" font-size="10.00">id:inst_26483 </text>
</g>
<!-- inst_26482&#45;&gt;inst_26483 -->
<g id="edge7" class="edge">
<title>inst_26482&#45;&gt;inst_26483</title>
<path fill="none" stroke="black" d="M607.73,-799.42C608.59,-786.73 609.64,-771.19 610.58,-757.34"/>
<polygon fill="black" stroke="black" points="614.08,-757.36 611.27,-747.15 607.1,-756.89 614.08,-757.36"/>
</g>
<!-- inst_26484 -->
<g id="node13" class="node">
<title>inst_26484</title>
<polygon fill="#bbbbbb" stroke="black" points="670,-652.5 566,-652.5 566,-599.5 670,-599.5 670,-652.5"/>
<text text-anchor="middle" x="618" y="-640.5" font-family="Times,serif" font-size="10.00">:Const </text>
<text text-anchor="middle" x="618" y="-629.5" font-family="Times,serif" font-size="10.00"> value:inst_26482</text>
<text text-anchor="middle" x="618" y="-618.5" font-family="Times,serif" font-size="10.00">id:inst_26484 </text>
</g>
<!-- inst_26483&#45;&gt;inst_26484 -->
<g id="edge8" class="edge">
<title>inst_26483&#45;&gt;inst_26484</title>
<path fill="none" stroke="black" d="M614.39,-693.73C614.91,-684.11 615.51,-673.01 616.07,-662.65"/>
<polygon fill="black" stroke="black" points="619.57,-662.8 616.61,-652.63 612.58,-662.42 619.57,-662.8"/>
</g>
<!-- inst_26485 -->
<g id="node14" class="node">
<title>inst_26485</title>
<polygon fill="#bbbbbb" stroke="black" points="671,-547 567,-547 567,-494 671,-494 671,-547"/>
<text text-anchor="middle" x="619" y="-535" font-family="Times,serif" font-size="10.00">:Const </text>
<text text-anchor="middle" x="619" y="-524" font-family="Times,serif" font-size="10.00"> value:inst_26483</text>
<text text-anchor="middle" x="619" y="-513" font-family="Times,serif" font-size="10.00">id:inst_26485 </text>
</g>
<!-- inst_26484&#45;&gt;inst_26485 -->
<g id="edge9" class="edge">
<title>inst_26484&#45;&gt;inst_26485</title>
<path fill="none" stroke="black" d="M618.25,-599.42C618.37,-586.73 618.52,-571.19 618.65,-557.34"/>
<polygon fill="black" stroke="black" points="622.16,-557.18 618.75,-547.15 615.16,-557.11 622.16,-557.18"/>
</g>
<!-- inst_26486 -->
<g id="node15" class="node">
<title>inst_26486</title>
<polygon fill="#d6cdea" stroke="black" points="763,-458 485,-458 485,-405 763,-405 763,-458"/>
<text text-anchor="middle" x="624" y="-446" font-family="Times,serif" font-size="10.00">:Call </text>
<text text-anchor="middle" x="624" y="-435" font-family="Times,serif" font-size="10.00"> refs:[clojure.core/reduce clojure.core/+ inst_26485]</text>
<text text-anchor="middle" x="624" y="-424" font-family="Times,serif" font-size="10.00">id:inst_26486 </text>
</g>
<!-- inst_26485&#45;&gt;inst_26486 -->
<g id="edge10" class="edge">
<title>inst_26485&#45;&gt;inst_26486</title>
<path fill="none" stroke="black" d="M620.47,-493.87C620.93,-485.89 621.45,-476.93 621.94,-468.38"/>
<polygon fill="black" stroke="black" points="625.44,-468.43 622.52,-458.25 618.45,-468.03 625.44,-468.43"/>
</g>
<!-- inst_26487 -->
<g id="node16" class="node">
<title>inst_26487</title>
<polygon fill="#bbbbbb" stroke="black" points="677,-369 573,-369 573,-316 677,-316 677,-369"/>
<text text-anchor="middle" x="625" y="-357" font-family="Times,serif" font-size="10.00">:Const </text>
<text text-anchor="middle" x="625" y="-346" font-family="Times,serif" font-size="10.00"> value:inst_26481</text>
<text text-anchor="middle" x="625" y="-335" font-family="Times,serif" font-size="10.00">id:inst_26487 </text>
</g>
<!-- inst_26486&#45;&gt;inst_26487 -->
<g id="edge11" class="edge">
<title>inst_26486&#45;&gt;inst_26487</title>
<path fill="none" stroke="black" d="M624.29,-404.87C624.39,-396.89 624.49,-387.93 624.59,-379.38"/>
<polygon fill="black" stroke="black" points="628.09,-379.29 624.7,-369.25 621.09,-379.21 628.09,-379.29"/>
</g>
<!-- inst_26488 -->
<g id="node17" class="node">
<title>inst_26488</title>
<polygon fill="#bbbbbb" stroke="black" points="682,-280 578,-280 578,-227 682,-227 682,-280"/>
<text text-anchor="middle" x="630" y="-268" font-family="Times,serif" font-size="10.00">:Const </text>
<text text-anchor="middle" x="630" y="-257" font-family="Times,serif" font-size="10.00"> value:inst_26486</text>
<text text-anchor="middle" x="630" y="-246" font-family="Times,serif" font-size="10.00">id:inst_26488 </text>
</g>
<!-- inst_26487&#45;&gt;inst_26488 -->
<g id="edge12" class="edge">
<title>inst_26487&#45;&gt;inst_26488</title>
<path fill="none" stroke="black" d="M626.47,-315.87C626.93,-307.89 627.45,-298.93 627.94,-290.38"/>
<polygon fill="black" stroke="black" points="631.44,-290.43 628.52,-280.25 624.45,-290.03 631.44,-290.43"/>
</g>
<!-- inst_26489 -->
<g id="node18" class="node">
<title>inst_26489</title>
<polygon fill="#d6cdea" stroke="black" points="750,-191 514,-191 514,-138 750,-138 750,-191"/>
<text text-anchor="middle" x="632" y="-179" font-family="Times,serif" font-size="10.00">:Call </text>
<text text-anchor="middle" x="632" y="-168" font-family="Times,serif" font-size="10.00"> refs:[clojure.core/println &quot;Got &quot; inst_26487]</text>
<text text-anchor="middle" x="632" y="-157" font-family="Times,serif" font-size="10.00">id:inst_26489 </text>
</g>
<!-- inst_26488&#45;&gt;inst_26489 -->
<g id="edge13" class="edge">
<title>inst_26488&#45;&gt;inst_26489</title>
<path fill="none" stroke="black" d="M630.59,-226.87C630.77,-218.89 630.98,-209.93 631.18,-201.38"/>
<polygon fill="black" stroke="black" points="634.68,-201.33 631.41,-191.25 627.68,-201.17 634.68,-201.33"/>
</g>
<!-- inst_26490 -->
<g id="node19" class="node">
<title>inst_26490</title>
<polygon fill="#ffe7c7" stroke="black" points="791.5,-102 476.5,-102 476.5,-16 791.5,-16 791.5,-102"/>
<text text-anchor="middle" x="634" y="-90" font-family="Times,serif" font-size="10.00">:CustomTerminator </text>
<text text-anchor="middle" x="634" y="-79" font-family="Times,serif" font-size="10.00"> f:clojure.core.async.impl.ioc&#45;macros/take!</text>
<text text-anchor="middle" x="634" y="-68" font-family="Times,serif" font-size="10.00">blk:8</text>
<text text-anchor="middle" x="634" y="-57" font-family="Times,serif" font-size="10.00">values:[inst_26475]</text>
<text text-anchor="middle" x="634" y="-46" font-family="Times,serif" font-size="10.00">meta:{:clojure.storm/coord [3 2 2 3 1], :column 16, :line 23}</text>
<text text-anchor="middle" x="634" y="-35" font-family="Times,serif" font-size="10.00">id:inst_26490 </text>
</g>
<!-- inst_26489&#45;&gt;inst_26490 -->
<g id="edge14" class="edge">
<title>inst_26489&#45;&gt;inst_26490</title>
<path fill="none" stroke="black" d="M632.49,-137.92C632.65,-130.09 632.82,-121.17 632.99,-112.24"/>
<polygon fill="black" stroke="black" points="636.49,-112.27 633.18,-102.2 629.49,-112.14 636.49,-112.27"/>
</g>
<!-- inst_26491 -->
<g id="node24" class="node">
<title>inst_26491</title>
<polygon fill="#bbbbbb" stroke="black" points="275.5,-1380 16.5,-1380 16.5,-1327 275.5,-1327 275.5,-1380"/>
<text text-anchor="middle" x="146" y="-1368" font-family="Times,serif" font-size="10.00">:Const </text>
<text text-anchor="middle" x="146" y="-1357" font-family="Times,serif" font-size="10.00"> value::clojure.core.async.impl.ioc&#45;macros/value</text>
<text text-anchor="middle" x="146" y="-1346" font-family="Times,serif" font-size="10.00">id:inst_26491 </text>
</g>
<!-- inst_26490&#45;&gt;inst_26491 -->
<g id="edge23" class="edge">
<title>inst_26490&#45;&gt;inst_26491</title>
<path fill="none" stroke="black" d="M476.18,-85.72C319.34,-115.87 102,-172.14 102,-252.5 102,-1160 102,-1160 102,-1160 102,-1218.83 105.59,-1234.22 121,-1291 123.39,-1299.81 126.7,-1309.05 130.12,-1317.62"/>
<polygon fill="black" stroke="black" points="126.92,-1319.05 133.99,-1326.95 133.39,-1316.37 126.92,-1319.05"/>
</g>
<!-- inst_26495 -->
<g id="node21" class="node">
<title>inst_26495</title>
<polygon fill="#bbbbbb" stroke="black" points="343,-858 239,-858 239,-794 343,-794 343,-858"/>
<text text-anchor="middle" x="291" y="-846" font-family="Times,serif" font-size="10.00">:Jmp </text>
<text text-anchor="middle" x="291" y="-835" font-family="Times,serif" font-size="10.00"> value:inst_26494</text>
<text text-anchor="middle" x="291" y="-824" font-family="Times,serif" font-size="10.00">block:7</text>
<text text-anchor="middle" x="291" y="-813" font-family="Times,serif" font-size="10.00">id:inst_26495 </text>
</g>
<!-- inst_26494&#45;&gt;inst_26495 -->
<g id="edge15" class="edge">
<title>inst_26494&#45;&gt;inst_26495</title>
<path fill="none" stroke="black" d="M291,-893.99C291,-885.86 291,-876.96 291,-868.38"/>
<polygon fill="black" stroke="black" points="294.5,-868.14 291,-858.14 287.5,-868.14 294.5,-868.14"/>
</g>
<!-- inst_26496 -->
<g id="node22" class="node">
<title>inst_26496</title>
<polygon fill="#bbbbbb" stroke="black" points="420.5,-747 161.5,-747 161.5,-694 420.5,-694 420.5,-747"/>
<text text-anchor="middle" x="291" y="-735" font-family="Times,serif" font-size="10.00">:Const </text>
<text text-anchor="middle" x="291" y="-724" font-family="Times,serif" font-size="10.00"> value::clojure.core.async.impl.ioc&#45;macros/value</text>
<text text-anchor="middle" x="291" y="-713" font-family="Times,serif" font-size="10.00">id:inst_26496 </text>
</g>
<!-- inst_26495&#45;&gt;inst_26496 -->
<g id="edge24" class="edge">
<title>inst_26495&#45;&gt;inst_26496</title>
<path fill="none" stroke="black" d="M291,-793.95C291,-782.43 291,-769.28 291,-757.38"/>
<polygon fill="black" stroke="black" points="294.5,-757.3 291,-747.3 287.5,-757.3 294.5,-757.3"/>
</g>
<!-- inst_26497 -->
<g id="node23" class="node">
<title>inst_26497</title>
<polygon fill="#bbbbbb" stroke="black" points="343,-658 239,-658 239,-594 343,-594 343,-658"/>
<text text-anchor="middle" x="291" y="-646" font-family="Times,serif" font-size="10.00">:Jmp </text>
<text text-anchor="middle" x="291" y="-635" font-family="Times,serif" font-size="10.00"> value:inst_26496</text>
<text text-anchor="middle" x="291" y="-624" font-family="Times,serif" font-size="10.00">block:4</text>
<text text-anchor="middle" x="291" y="-613" font-family="Times,serif" font-size="10.00">id:inst_26497 </text>
</g>
<!-- inst_26496&#45;&gt;inst_26497 -->
<g id="edge16" class="edge">
<title>inst_26496&#45;&gt;inst_26497</title>
<path fill="none" stroke="black" d="M291,-693.73C291,-685.82 291,-676.9 291,-668.22"/>
<polygon fill="black" stroke="black" points="294.5,-668.22 291,-658.22 287.5,-668.22 294.5,-668.22"/>
</g>
<!-- inst_26497&#45;&gt;inst_26498 -->
<g id="edge25" class="edge">
<title>inst_26497&#45;&gt;inst_26498</title>
<path fill="none" stroke="black" d="M291,-593.95C291,-582.43 291,-569.28 291,-557.38"/>
<polygon fill="black" stroke="black" points="294.5,-557.3 291,-547.3 287.5,-557.3 294.5,-557.3"/>
</g>
<!-- inst_26492 -->
<g id="node25" class="node">
<title>inst_26492</title>
<polygon fill="#bbbbbb" stroke="black" points="276,-1291 130,-1291 130,-1227 276,-1227 276,-1291"/>
<text text-anchor="middle" x="203" y="-1279" font-family="Times,serif" font-size="10.00">:Recur </text>
<text text-anchor="middle" x="203" y="-1268" font-family="Times,serif" font-size="10.00"> recur&#45;nodes:[inst_26478]</text>
<text text-anchor="middle" x="203" y="-1257" font-family="Times,serif" font-size="10.00">ids:[inst_26491]</text>
<text text-anchor="middle" x="203" y="-1246" font-family="Times,serif" font-size="10.00">id:inst_26492 </text>
</g>
<!-- inst_26491&#45;&gt;inst_26492 -->
<g id="edge17" class="edge">
<title>inst_26491&#45;&gt;inst_26492</title>
<path fill="none" stroke="black" d="M161.88,-1326.73C167.02,-1318.39 172.85,-1308.93 178.47,-1299.81"/>
<polygon fill="black" stroke="black" points="181.5,-1301.57 183.76,-1291.22 175.54,-1297.89 181.5,-1301.57"/>
</g>
<!-- inst_26492&#45;&gt;inst_26478 -->
<g id="edge26" class="edge">
<title>inst_26492&#45;&gt;inst_26478</title>
<path fill="none" stroke="black" d="M276.04,-1259C280.62,-1259 285.19,-1259 289.77,-1259"/>
<polygon fill="black" stroke="black" points="289.78,-1262.5 299.78,-1259 289.78,-1255.5 289.78,-1262.5"/>
</g>
<!-- inst_26493 -->
<g id="node26" class="node">
<title>inst_26493</title>
<polygon fill="#bbbbbb" stroke="black" points="261,-1191 175,-1191 175,-1127 261,-1127 261,-1191"/>
<text text-anchor="middle" x="218" y="-1179" font-family="Times,serif" font-size="10.00">:Jmp </text>
<text text-anchor="middle" x="218" y="-1168" font-family="Times,serif" font-size="10.00"> value:</text>
<text text-anchor="middle" x="218" y="-1157" font-family="Times,serif" font-size="10.00">block:3</text>
<text text-anchor="middle" x="218" y="-1146" font-family="Times,serif" font-size="10.00">id:inst_26493 </text>
</g>
<!-- inst_26492&#45;&gt;inst_26493 -->
<g id="edge18" class="edge">
<title>inst_26492&#45;&gt;inst_26493</title>
<path fill="none" stroke="black" d="M207.75,-1226.99C209,-1218.77 210.38,-1209.76 211.71,-1201.09"/>
<polygon fill="black" stroke="black" points="215.18,-1201.56 213.23,-1191.14 208.26,-1200.5 215.18,-1201.56"/>
</g>
<!-- inst_26493&#45;&gt;inst_26480 -->
<g id="edge27" class="edge">
<title>inst_26493&#45;&gt;inst_26480</title>
<path fill="none" stroke="black" d="M245.6,-1126.71C256.24,-1114.65 268.61,-1100.63 280.12,-1087.58"/>
<polygon fill="black" stroke="black" points="282.79,-1089.84 286.78,-1080.02 277.54,-1085.21 282.79,-1089.84"/>
</g>
<!-- start -->
<g id="node27" class="node">
<title>start</title>
<ellipse fill="none" stroke="black" cx="430" cy="-1748" rx="33.29" ry="18"/>
<text text-anchor="middle" x="430" y="-1744.3" font-family="Times,serif" font-size="14.00">start</text>
</g>
<!-- start&#45;&gt;inst_26474 -->
<g id="edge28" class="edge">
<title>start&#45;&gt;inst_26474</title>
<path fill="none" stroke="black" d="M430,-1729.72C430,-1721.39 430,-1711.09 430,-1701.19"/>
<polygon fill="black" stroke="black" points="433.5,-1701.12 430,-1691.12 426.5,-1701.12 433.5,-1701.12"/>
</g>
</g>
</svg>
