<svg width="500" height="500" viewBox="0 0 132.292 132.292" xmlns="http://www.w3.org/2000/svg">
  <path fill="#fff" d="m59.745 17.318 25.378 7.783-17.934 32.084L87.49 66.66l-36.206 51.094 9.813-41.958-15.903-9.136zM31.857 32.49a5.292 5.292 0 0 0-3.592 1.871c-15.402 18.356-15.402 45.214 0 63.57a5.292 5.292 0 0 0 7.456.653 5.292 5.292 0 0 0 .652-7.455 38.81 38.81 0 0 1 0-49.965 5.292 5.292 0 0 0-.652-7.455 5.292 5.292 0 0 0-3.864-1.219zm68.577 0a5.292 5.292 0 0 0-3.862 1.219 5.292 5.292 0 0 0-.652 7.455 38.81 38.81 0 0 1 0 49.965 5.292 5.292 0 0 0 .652 7.455 5.292 5.292 0 0 0 7.455-.652c15.403-18.357 15.403-45.215 0-63.57a5.292 5.292 0 0 0-3.594-1.872z"/>
</svg>
